<svg width="1534" height="1305" viewBox="0 0 1534 1305" fill="none" xmlns="http://www.w3.org/2000/svg">
<path d="M1237.08 1112.37H289.625V260.736H1237.08V1112.37Z" fill="#AAE0FF"/>
<path d="M8.37216 1304.37H1524.74C1529.35 1304.37 1533.1 1300.99 1533.1 1296.82C1533.1 1292.65 1529.35 1289.26 1524.74 1289.26H8.37216C3.74832 1289.26 0 1292.65 0 1296.82C0 1300.99 3.74832 1304.37 8.37216 1304.37Z" fill="#2D5B98"/>
<path d="M416.981 1229.4C370.186 1229.4 332.25 1195.17 332.25 1152.94V1048.72H501.712V1152.94C501.712 1195.17 463.777 1229.4 416.981 1229.4Z" fill="#5896FA"/>
<path d="M332.25 1289.26H322.859V1127.48H332.25V1289.26Z" fill="#0E0E0E"/>
<path d="M511.103 1289.26H501.712V1127.48H511.103V1289.26Z" fill="#0E0E0E"/>
<path d="M439.237 1289.26H429.846V1127.48H439.237V1289.26Z" fill="#0E0E0E"/>
<path d="M322.859 1237.87V1229.4H502.148V1237.87H322.859Z" fill="#0E0E0E"/>
<path d="M548.943 876.517C559.17 889.811 538.585 901.266 535.38 919.69C532.175 938.107 555.561 948.476 530.758 972.596C515.482 987.452 502.587 967.72 490.171 990.489C477.754 1013.26 487.538 1017.1 473.581 1025.29C449.25 1039.57 412.026 1008 424.545 985.261C437.064 962.517 462.388 964.554 450.672 945.841C438.956 927.127 434.597 919.066 454.801 909.45C479.808 897.551 501.843 908.481 503.855 891.07C505.867 873.659 535.415 858.939 548.943 876.517Z" fill="#FFCA59"/>
<path d="M442.048 1047.67L437.839 1046.92C457.554 957 522.917 894.033 523.575 893.409L526.687 896.076C526.037 896.693 461.515 958.888 442.048 1047.67Z" fill="#0E0E0E"/>
<path d="M221.228 843.299C210.656 862.741 240.449 874.165 248.795 897.964C257.142 921.757 226.406 930.164 264.604 957.586C288.13 974.479 293.054 963.918 301.704 1001.7C309.319 1034.96 337.326 1003.31 358.271 1022.83C385.296 1048.02 427.525 992.735 405.89 964.912C384.255 937.089 359.007 944.279 370.341 917.394C381.675 890.502 368.157 870.246 339.278 861.185C303.534 849.977 290.678 877.047 284.136 854.372C277.593 831.696 235.21 817.58 221.228 843.299Z" fill="#ED5A24"/>
<path d="M400.827 1050.39C355.255 936.373 256.034 865.839 255.038 865.142L258.562 861.043C259.572 861.753 360.099 933.213 406.23 1048.63L400.827 1050.39Z" fill="#0E0E0E"/>
<path d="M887.391 407.753C887.391 588.346 725.147 734.746 525.006 734.746C324.865 734.746 162.619 588.346 162.619 407.753C162.619 227.154 324.865 80.7542 525.006 80.7542C725.147 80.7542 887.391 227.154 887.391 407.753Z" stroke="#2E77E6" stroke-width="11.6408" stroke-miterlimit="10" stroke-dasharray="17.46 17.46"/>
<path d="M616.76 386.287C617.143 383.738 617.41 381.152 617.41 378.504C617.41 346.675 588.812 320.876 553.54 320.876C527.078 320.876 504.375 335.392 494.685 356.087C486.799 349.749 476.439 345.873 465.049 345.873C440.4 345.873 420.419 363.901 420.419 386.139H412.09C388.39 386.139 368.998 403.636 368.998 425.022C368.998 446.408 388.39 463.906 412.09 463.906H613.579C637.28 463.906 656.671 446.408 656.671 425.022C656.671 404.605 638.983 387.774 616.76 386.287Z" fill="white"/>
<path d="M656.391 809.266H386.625C377.547 809.266 370.187 802.625 370.187 794.435V590.216C370.187 582.026 377.547 575.385 386.625 575.385H656.391C665.468 575.385 672.828 582.026 672.828 590.216V794.435C672.828 802.625 665.468 809.266 656.391 809.266Z" fill="#5896FA"/>
<path d="M613.135 716.606H430.687C424.718 716.606 419.833 712.193 419.833 706.811C419.833 701.423 424.718 697.016 430.687 697.016H613.135C619.099 697.016 623.99 701.423 623.99 706.811C623.99 712.193 619.099 716.606 613.135 716.606Z" fill="white"/>
<path d="M613.135 748.151H430.687C424.718 748.151 419.833 743.744 419.833 738.356C419.833 732.968 424.718 728.561 430.687 728.561H613.135C619.099 728.561 623.99 732.968 623.99 738.356C623.99 743.744 619.099 748.151 613.135 748.151Z" fill="white"/>
<path d="M464.755 739.226C464.755 741.127 463.044 742.67 460.933 742.67C458.822 742.67 457.112 741.127 457.112 739.226C457.112 737.319 458.822 735.776 460.933 735.776C463.044 735.776 464.755 737.319 464.755 739.226Z" fill="#80B2FF"/>
<path d="M477.858 739.226C477.858 741.127 476.147 742.67 474.036 742.67C471.925 742.67 470.214 741.127 470.214 739.226C470.214 737.319 471.925 735.776 474.036 735.776C476.147 735.776 477.858 737.319 477.858 739.226Z" fill="#80B2FF"/>
<path d="M490.961 739.226C490.961 741.127 489.25 742.67 487.139 742.67C485.029 742.67 483.317 741.127 483.317 739.226C483.317 737.319 485.029 735.776 487.139 735.776C489.25 735.776 490.961 737.319 490.961 739.226Z" fill="#80B2FF"/>
<path d="M504.064 739.226C504.064 741.127 502.352 742.67 500.242 742.67C498.131 742.67 496.42 741.127 496.42 739.226C496.42 737.319 498.131 735.776 500.242 735.776C502.352 735.776 504.064 737.319 504.064 739.226Z" fill="#80B2FF"/>
<path d="M517.167 739.226C517.167 741.127 515.456 742.67 513.345 742.67C511.234 742.67 509.523 741.127 509.523 739.226C509.523 737.319 511.234 735.776 513.345 735.776C515.456 735.776 517.167 737.319 517.167 739.226Z" fill="#80B2FF"/>
<path d="M530.27 739.226C530.27 741.127 528.558 742.67 526.447 742.67C524.337 742.67 522.626 741.127 522.626 739.226C522.626 737.319 524.337 735.776 526.447 735.776C528.558 735.776 530.27 737.319 530.27 739.226Z" fill="#80B2FF"/>
<path d="M543.372 739.226C543.372 741.127 541.661 742.67 539.551 742.67C537.44 742.67 535.729 741.127 535.729 739.226C535.729 737.319 537.44 735.776 539.551 735.776C541.661 735.776 543.372 737.319 543.372 739.226Z" fill="#80B2FF"/>
<path d="M556.475 739.226C556.475 741.127 554.764 742.67 552.654 742.67C550.543 742.67 548.832 741.127 548.832 739.226C548.832 737.319 550.543 735.776 552.654 735.776C554.764 735.776 556.475 737.319 556.475 739.226Z" fill="#80B2FF"/>
<path d="M569.578 739.226C569.578 741.127 567.867 742.67 565.756 742.67C563.645 742.67 561.935 741.127 561.935 739.226C561.935 737.319 563.645 735.776 565.756 735.776C567.867 735.776 569.578 737.319 569.578 739.226Z" fill="#80B2FF"/>
<path d="M563.911 631.76C563.911 652.664 545.134 669.606 521.971 669.606C498.809 669.606 480.032 652.664 480.032 631.76C480.032 610.861 498.809 593.919 521.971 593.919C545.134 593.919 563.911 610.861 563.911 631.76Z" fill="white"/>
<path d="M522.032 630.241C526.125 630.241 529.906 628.439 532.321 625.692C534.105 623.699 535.155 621.144 535.155 618.298C535.155 611.762 529.276 606.362 522.032 606.362C514.683 606.362 508.802 611.762 508.802 618.298C508.802 621.144 509.85 623.699 511.638 625.692C514.052 628.439 517.83 630.241 522.032 630.241Z" fill="#005CEA"/>
<path d="M545.277 651.51C545.277 659.046 498.657 659.046 498.657 651.51L498.672 642.733C500.514 630.729 541.489 630.223 545.286 642.733L545.277 651.51Z" fill="#005CEA"/>
<path d="M436.192 740.047V742.053C436.192 742.417 435.85 742.67 435.45 742.67C435.051 742.67 434.767 742.417 434.767 742.053V740.047C434.367 739.844 434.082 739.48 434.082 739.017C434.082 738.35 434.709 737.782 435.45 737.782C436.192 737.782 436.819 738.35 436.819 739.017C436.819 739.48 436.533 739.844 436.192 740.047ZM432.717 736.023C432.717 734.69 433.628 733.48 435.465 733.48C437.302 733.48 438.244 734.616 438.244 736.023V736.548H432.717V736.023ZM439.736 736.548V736.023C439.736 733.9 437.821 732.172 435.465 732.172C433.11 732.172 431.194 733.9 431.194 736.023V736.548H430.545V743.497C430.545 744.695 440.412 744.695 440.412 743.497V736.548H439.736Z" fill="#5896FA"/>
<path d="M435.475 706.095C436.339 706.095 437.138 705.719 437.647 705.138C438.023 704.719 438.245 704.182 438.245 703.577C438.245 702.201 437.004 701.059 435.475 701.059C433.925 701.059 432.684 702.201 432.684 703.577C432.684 704.182 432.906 704.719 433.283 705.138C433.792 705.719 434.589 706.095 435.475 706.095Z" fill="#5896FA"/>
<path d="M440.381 710.588C440.381 712.175 430.492 712.175 430.492 710.588L430.546 708.737C430.935 706.2 439.581 706.095 440.383 708.737L440.381 710.588Z" fill="#5896FA"/>
<path d="M499.382 709.681H459.4C457.648 709.681 456.214 708.391 456.214 706.811C456.214 705.225 457.648 703.935 459.4 703.935H499.382C501.133 703.935 502.567 705.225 502.567 706.811C502.567 708.391 501.133 709.681 499.382 709.681Z" fill="#80B2FF"/>
<path d="M552.114 709.681H512.132C510.38 709.681 508.947 708.391 508.947 706.811C508.947 705.225 510.38 703.935 512.132 703.935H552.114C553.866 703.935 555.299 705.225 555.299 706.811C555.299 708.391 553.866 709.681 552.114 709.681Z" fill="#80B2FF"/>
<path d="M535.283 778.715H499.051C493.914 778.715 489.75 774.956 489.75 770.327C489.75 765.692 493.914 761.933 499.051 761.933H535.283C540.419 761.933 544.583 765.692 544.583 770.327C544.583 774.956 540.419 778.715 535.283 778.715Z" fill="#1251B3"/>
<path d="M61.0573 437.058C61.0586 436.786 61.0593 436.669 61.0593 436.644C61.0586 436.694 61.0573 437.058 61.0573 437.058Z" fill="#D9FFFF"/>
<path d="M61.0573 437.058C61.0586 436.786 61.0593 436.669 61.0593 436.644C61.0586 436.694 61.0573 437.058 61.0573 437.058Z" fill="#D9FFFF"/>
<path d="M239.4 437.78C239.4 437.78 239.401 437.409 239.402 437.36C239.402 437.391 239.401 437.508 239.4 437.78Z" fill="#D9FFFF"/>
<path d="M239.4 437.78C239.4 437.78 239.401 437.409 239.402 437.36C239.402 437.391 239.401 437.508 239.4 437.78Z" fill="#D9FFFF"/>
<path d="M150.594 393.582C129.812 413.672 96.6492 430.133 61.1619 437.144C61.1516 439.286 61.0928 451.136 60.8226 505.746C60.4615 578.6 137.299 614.2 149.228 619.662C160.786 614.861 238.594 579.316 238.954 506.468C239.224 451.852 239.283 440.002 239.294 437.866C203.878 430.565 171.177 413.839 150.594 393.582Z" fill="white"/>
<path d="M150.381 406.747C130.03 423.597 101.835 436.836 70.8303 444.051L70.5245 505.777C70.3843 534.02 82.8194 559.572 107.484 581.723C123.691 596.277 140.731 605.306 149.377 609.361C149.749 609.195 150.157 608.997 150.559 608.812V406.889C150.5 406.846 150.438 406.796 150.381 406.747Z" fill="#296ACC"/>
<path d="M150.559 406.889V608.812C159.55 604.59 175.891 595.869 191.542 582.063C216.424 560.109 229.113 534.662 229.251 506.419L229.558 444.693C198.714 437.249 170.728 423.831 150.559 406.889Z" fill="#2E77E6"/>
<path d="M154.203 521.256V534.81C154.203 536.612 152.576 538.112 150.575 538.112C148.542 538.112 146.914 536.612 146.914 534.81V521.225C143.828 519.966 141.658 517.152 141.658 513.911C141.658 509.474 145.658 505.894 150.575 505.894C155.491 505.894 159.459 509.474 159.459 513.911C159.459 517.183 157.322 519.997 154.203 521.256ZM114.534 495.858V543.679C114.534 549.005 186.584 549.005 186.584 543.679V495.858H114.534Z" fill="white"/>
<path d="M180.277 492.451H172.984V489.23C172.984 478.077 162.924 468.998 150.562 468.998C138.197 468.998 128.139 478.077 128.139 489.23V492.451H120.845V489.23C120.845 474.448 134.176 462.418 150.562 462.418C166.946 462.418 180.277 474.448 180.277 489.23V492.451Z" fill="white"/>
<path d="M683.888 146.591H553.739V-1.78324e-05H683.888V146.591Z" fill="#296ACC"/>
<path d="M700.769 161.731H570.617V15.1399H700.769V161.731Z" fill="white"/>
<path d="M700.769 161.731H570.617V15.1399H700.769V161.731Z" stroke="#5896FA" stroke-width="8.45409" stroke-miterlimit="10"/>
<path d="M722.199 176.593H592.054V30.0022H722.199V176.593Z" fill="white"/>
<path d="M722.199 176.593H592.054V30.0022H722.199V176.593Z" stroke="#5896FA" stroke-width="8.45409" stroke-miterlimit="10"/>
<path d="M737.794 191.727H607.649V45.142H737.794V191.727Z" fill="#5896FA"/>
<path d="M717.547 78.7424H650.228V69.2066H717.547V78.7424Z" fill="#005CEA"/>
<path d="M717.547 101.141H630.317V91.6049H717.547V101.141Z" fill="#005CEA"/>
<path d="M717.547 123.539H630.317V114.003H717.547V123.539Z" fill="#005CEA"/>
<path d="M717.547 145.937H630.317V136.401H717.547V145.937Z" fill="#005CEA"/>
<path d="M717.547 168.335H630.317V158.806H717.547V168.335Z" fill="#005CEA"/>
<path d="M314.182 159.559C314.182 182.469 293.601 201.041 268.214 201.041C242.826 201.041 222.245 182.469 222.245 159.559C222.245 136.654 242.826 118.083 268.214 118.083C293.601 118.083 314.182 136.654 314.182 159.559Z" fill="white"/>
<path d="M244.495 195.079C222.734 183.241 215.742 157.763 228.865 138.129C241.967 118.521 270.199 112.213 291.96 124.057C313.686 135.877 320.677 161.355 307.576 180.957C294.453 200.59 266.222 206.904 244.495 195.079ZM340.74 199.004C346.7 190.085 350.427 180.445 352.005 170.718L355.43 171.174L362.191 172.069L362.279 172.075C364.103 160.947 363.482 149.69 360.502 138.938L350.443 141.185C347.744 131.451 342.99 122.181 336.213 114.009L344.551 108.418C337.417 99.678 328.26 92.0431 317.329 86.0933L311.959 94.1293C302.039 88.735 291.393 85.3897 280.613 83.964L282.116 74.6937C269.782 73.0458 257.287 73.6383 245.39 76.2984L247.881 85.3774C237.098 87.8092 226.824 92.0987 217.768 98.2152L211.571 90.6915C201.887 97.1289 193.42 105.393 186.828 115.256L195.735 120.101C189.754 129.05 186.047 138.66 184.469 148.387L177.202 147.418L174.23 147.048L174.196 147.03C172.371 158.158 173.026 169.434 175.972 180.167L186.032 177.92C188.731 187.654 193.518 196.942 200.295 205.108L191.957 210.706C199.091 219.439 208.214 227.062 219.145 233.012L224.516 224.976C234.435 230.37 245.115 233.734 255.895 235.16L254.715 242.362L254.393 244.43C266.726 246.072 279.187 245.467 291.084 242.807L288.595 233.728C299.377 231.296 309.671 226.975 318.76 220.877L324.957 228.401C334.609 221.945 343.054 213.712 349.646 203.849L340.74 199.004Z" fill="#005CEA"/>
<path d="M144.887 233.912C133.73 240.578 118.724 237.819 111.341 227.753C103.969 217.699 107.024 204.157 118.182 197.498C129.322 190.844 144.327 193.603 151.698 203.651C159.081 213.724 156.027 227.259 144.887 233.912ZM168.703 193.498C165.349 188.925 161.111 185.154 156.342 182.278L157.354 180.907L159.355 178.21L159.378 178.173C153.925 174.877 147.852 172.6 141.511 171.446L140.423 176.272C134.685 175.229 128.725 175.174 122.887 176.235L121.824 171.396C115.607 172.482 109.512 174.686 103.907 178.031L106.929 182.154C101.843 185.191 97.6752 189.005 94.4884 193.307L89.9426 190.567C86.2873 195.486 83.7756 200.985 82.4883 206.688L87.8352 207.669C86.6819 212.847 86.6211 218.229 87.7982 223.494L82.4323 224.451C83.6368 230.061 86.078 235.567 89.7866 240.621L94.3537 237.893C97.719 242.485 101.944 246.244 106.714 249.12L104.563 252.021L103.696 253.212L103.679 253.225C109.132 256.52 115.221 258.786 121.545 259.946L122.634 255.126C128.371 256.163 134.349 256.206 140.186 255.144L141.249 259.989C147.467 258.903 153.544 256.712 159.15 253.36L156.127 249.244C161.213 246.207 165.399 242.38 168.585 238.079L172.115 240.214L173.131 240.819C176.786 235.894 179.281 230.413 180.568 224.704L175.221 223.722C176.374 218.544 176.423 213.15 175.264 207.873L180.629 206.916C179.408 201.318 176.978 195.831 173.269 190.776L168.703 193.498Z" fill="#1251B3"/>
<path d="M920.504 277.789H808.752C806.399 277.789 804.491 276.067 804.491 273.944V216.73C804.491 214.606 806.399 212.891 808.752 212.891H920.504C922.857 212.891 924.765 214.606 924.765 216.73V273.944C924.765 276.067 922.857 277.789 920.504 277.789Z" fill="#005CEA"/>
<path d="M924.765 236.344H804.491V225.148H924.765V236.344Z" fill="#5896FA"/>
<path d="M832.042 265.34H814.361C813.232 265.34 812.323 266.161 812.323 267.173C812.323 268.192 813.232 269.013 814.361 269.013H832.042C833.164 269.013 834.081 268.192 834.081 267.173C834.081 266.161 833.164 265.34 832.042 265.34Z" fill="#D1F5FF"/>
<path d="M859.238 265.34H841.55C840.428 265.34 839.518 266.161 839.518 267.173C839.518 268.192 840.428 269.013 841.55 269.013H859.238C860.36 269.013 861.27 268.192 861.27 267.173C861.27 266.161 860.36 265.34 859.238 265.34Z" fill="#D1F5FF"/>
<path d="M886.434 265.34H868.746C867.624 265.34 866.714 266.161 866.714 267.173C866.714 268.192 867.624 269.013 868.746 269.013H886.434C887.556 269.013 888.465 268.192 888.465 267.173C888.465 266.161 887.556 265.34 886.434 265.34Z" fill="#D1F5FF"/>
<path d="M913.623 265.34H895.942C894.82 265.34 893.903 266.161 893.903 267.173C893.903 268.192 894.82 269.013 895.942 269.013H913.623C914.752 269.013 915.661 268.192 915.661 267.173C915.661 266.161 914.752 265.34 913.623 265.34Z" fill="#D1F5FF"/>
<path d="M813.547 216.181C812.302 216.181 811.297 217.088 811.297 218.211V218.921C811.297 220.038 812.302 220.951 813.547 220.951C814.785 220.951 815.79 220.038 815.79 218.921V218.211C815.79 217.088 814.785 216.181 813.547 216.181Z" fill="#D1F5FF"/>
<path d="M818.383 218.563C818.383 219.884 819.566 220.951 821.023 220.951H830.387C831.844 220.951 833.027 219.884 833.027 218.563C833.027 217.248 831.844 216.181 830.387 216.181H821.023C819.566 216.181 818.383 217.248 818.383 218.563Z" fill="#D1F5FF"/>
<path d="M817.158 242.368H829.245C831.18 242.368 832.754 243.788 832.754 245.534V254.941C832.754 256.687 831.18 258.107 829.245 258.107H817.158C815.216 258.107 813.649 256.687 813.649 254.941V245.534C813.649 243.788 815.216 242.368 817.158 242.368Z" fill="#5896FA"/>
<path d="M876.242 443.112V435.7C876.242 432.33 873.219 429.602 869.491 429.602H797.575C793.848 429.602 790.817 432.33 790.817 435.7V566.75H976.838V443.112H876.242Z" fill="#1251B3"/>
<path d="M984.574 447.618H802.165L790.824 566.75H975.928L984.574 447.618Z" fill="white"/>
<path d="M976.838 566.75H790.824L810.558 449.099C811.139 445.655 814.415 443.112 818.273 443.112H988.507C993.281 443.112 996.934 446.945 996.223 451.204L976.838 566.75Z" fill="#3383FF"/>
<path d="M1038.93 447.618C1038.93 468.856 1019.85 486.076 996.312 486.076C972.775 486.076 953.692 468.856 953.692 447.618C953.692 426.374 972.775 409.154 996.312 409.154C1019.85 409.154 1038.93 426.374 1038.93 447.618Z" fill="#005CEA"/>
<path d="M996.312 410.561C973.664 410.561 955.251 427.182 955.251 447.612C955.251 468.047 973.664 484.669 996.312 484.669C1018.96 484.669 1037.37 468.047 1037.37 447.612C1037.37 427.182 1018.96 410.561 996.312 410.561ZM996.312 487.483C971.948 487.483 952.125 469.596 952.125 447.612C952.125 425.633 971.948 407.753 996.312 407.753C1020.68 407.753 1040.5 425.633 1040.5 447.612C1040.5 469.596 1020.68 487.483 996.312 487.483Z" fill="white"/>
<path d="M998.391 455.117V462.838C998.391 463.863 997.461 464.721 996.325 464.721C995.163 464.721 994.239 463.863 994.239 462.838V455.098C992.481 454.389 991.243 452.784 991.243 450.939C991.243 448.408 993.521 446.371 996.325 446.371C999.123 446.371 1001.38 448.408 1001.38 450.939C1001.38 452.802 1000.16 454.407 998.391 455.117ZM975.799 440.656V467.887C975.799 470.917 1016.82 470.917 1016.82 467.887V440.656H975.799Z" fill="white"/>
<path d="M1013.23 438.718H1009.08V436.885C1009.08 430.528 1003.36 425.362 996.312 425.362C989.273 425.362 983.541 430.528 983.541 436.885V438.718H979.39V436.885C979.39 428.46 986.982 421.609 996.312 421.609C1005.65 421.609 1013.23 428.46 1013.23 436.885V438.718Z" fill="white"/>
<path d="M864.628 125.754C864.628 133.889 857.323 140.481 848.315 140.481C839.299 140.481 831.994 133.889 831.994 125.754C831.994 117.626 839.299 111.034 848.315 111.034C857.323 111.034 864.628 117.626 864.628 125.754Z" fill="#AAE0FF"/>
<path d="M436.15 180.698C436.15 188.832 428.845 195.424 419.833 195.424C410.821 195.424 403.516 188.832 403.516 180.698C403.516 172.569 410.821 165.977 419.833 165.977C428.845 165.977 436.15 172.569 436.15 180.698Z" fill="#AAE0FF"/>
<path d="M971.27 376.739C971.27 380.991 967.447 384.435 962.734 384.435C958.021 384.435 954.198 380.991 954.198 376.739C954.198 372.48 958.021 369.036 962.734 369.036C967.447 369.036 971.27 372.48 971.27 376.739Z" fill="white"/>
<path d="M77.8932 391.181C77.8932 395.434 74.0717 398.884 69.3569 398.884C64.6428 398.884 60.8213 395.434 60.8213 391.181C60.8213 386.929 64.6428 383.479 69.3569 383.479C74.0717 383.479 77.8932 386.929 77.8932 391.181Z" fill="#AAE0FF"/>
<path d="M219.217 671.884C219.217 680.012 211.912 686.604 202.9 686.604C193.889 686.604 186.584 680.012 186.584 671.884C186.584 663.749 193.889 657.157 202.9 657.157C211.912 657.157 219.217 663.749 219.217 671.884Z" fill="#AAE0FF"/>
<path d="M464.747 34.5323C463.185 34.5323 461.919 33.3905 461.919 31.9833V4.67222C461.919 3.25884 463.185 2.11699 464.747 2.11699C466.308 2.11699 467.574 3.25884 467.574 4.67222V31.9833C467.574 33.3905 466.308 34.5323 464.747 34.5323Z" fill="#AAE0FF"/>
<path d="M446.785 18.3247C446.785 16.9175 448.051 15.7757 449.612 15.7757H479.881C481.442 15.7757 482.708 16.9175 482.708 18.3247C482.708 19.7319 481.442 20.8738 479.881 20.8738H449.612C448.051 20.8738 446.785 19.7319 446.785 18.3247Z" fill="#AAE0FF"/>
<path d="M786.536 385.244C784.969 385.244 783.704 384.096 783.704 382.689V355.377C783.704 353.97 784.969 352.828 786.536 352.828C788.095 352.828 789.361 353.97 789.361 355.377V382.689C789.361 384.096 788.095 385.244 786.536 385.244Z" fill="white"/>
<path d="M768.574 369.036C768.574 367.623 769.839 366.481 771.399 366.481H801.666C803.225 366.481 804.491 367.623 804.491 369.036C804.491 370.443 803.225 371.585 801.666 371.585H771.399C769.839 371.585 768.574 370.443 768.574 369.036Z" fill="white"/>
<path d="M755.756 744.979C754.196 744.979 752.931 743.837 752.931 742.43V715.119C752.931 713.711 754.196 712.563 755.756 712.563C757.322 712.563 758.587 713.711 758.587 715.119V742.43C758.587 743.837 757.322 744.979 755.756 744.979Z" fill="white"/>
<path d="M737.794 728.771C737.794 727.364 739.059 726.222 740.626 726.222H770.893C772.452 726.222 773.718 727.364 773.718 728.771C773.718 730.184 772.452 731.326 770.893 731.326H740.626C739.059 731.326 737.794 730.184 737.794 728.771Z" fill="white"/>
<path d="M512.88 541.111C512.88 545.623 508.828 549.277 503.83 549.277C498.831 549.277 494.779 545.623 494.779 541.111C494.779 536.606 498.831 532.946 503.83 532.946C508.828 532.946 512.88 536.606 512.88 541.111Z" stroke="white" stroke-width="5.63423" stroke-miterlimit="10"/>
<path d="M726.262 1289.18H690.844L687.178 1219.69H729.921L726.262 1289.18Z" fill="#0E0E0E"/>
<path d="M1341.77 1289.18H1306.36L1302.69 1219.69H1345.43L1341.77 1289.18Z" fill="#0E0E0E"/>
<path d="M1310.9 1099.1C1306.99 1110.02 1302.74 1121.24 1298.08 1132.74H710.146C710.146 1132.74 634.27 854.069 710.146 803.107C712.089 801.805 714.415 800.521 717.13 799.262C819.32 751.885 1229.04 740.757 1312.22 801.712C1312.85 802.169 1313.44 802.638 1314.01 803.107C1344.66 828.492 1371.31 929.837 1310.9 1099.1Z" fill="#EA7B00"/>
<path d="M931.81 1132.74H710.277L731.884 937.428C770.51 952.55 873.356 1032.41 931.81 1132.74Z" fill="#982C20"/>
<path d="M1310.9 1099.1C1306.99 1110.02 1302.74 1121.24 1298.08 1132.74H1084.54C1121.26 1071.29 1210.31 978.194 1296.78 935.348L1310.9 1099.1Z" fill="#982C20"/>
<path d="M1384.56 934.694H1303.05C1289.35 934.694 1277.77 943.853 1275.97 956.111L1249.98 1133.48H773.588L747.596 956.111C745.797 943.853 734.217 934.694 720.516 934.694H639.004C621.993 934.694 609.127 948.563 612.109 963.672L657.362 1259.05H702.13H1364.76H1366.2L1411.46 963.672C1414.44 948.563 1401.57 934.694 1384.56 934.694Z" fill="#EA7B00"/>
<path d="M1245.23 1036.6C1283.58 1048.18 1276.11 1121.47 1245.23 1132.73H779.887C745.133 1124.64 742.199 1027.71 792.316 1035C1099.06 1087.04 1113.91 1004.02 1245.23 1036.6Z" fill="#F2B066"/>
<path d="M890.552 962.313C890.408 981.237 891.537 999.049 893.794 1014.65H1111.99L1124.91 822.4C1111.95 752.182 1076.47 735.165 1020.31 735.165C970.046 735.165 936.571 772.16 916.229 821.684C898.643 864.475 890.866 916.604 890.552 962.313Z" fill="#007880"/>
<path d="M890.552 966.029L969.513 961.739C925.675 948.791 922.187 888.077 966.749 850.304L916.229 821.684C898.643 864.475 890.866 920.313 890.552 966.029Z" fill="#005459"/>
<path d="M875.524 1054.38H1175.31V962.32H905.265L875.524 1054.38Z" fill="#0E0E0E"/>
<path d="M1213.6 1025.16L1133.08 1289.18H1070.29C1090.17 1176.83 1085.72 1103.79 1104.42 1010.5C1120.82 933.929 1233.13 954.198 1213.6 1025.16Z" fill="#0E0E0E"/>
<path d="M1110.53 1289.18C1110.53 1289 1110.52 1288.83 1110.52 1288.65C1110.52 1269.08 1128.1 1253.22 1149.79 1253.22C1171.48 1253.22 1189.06 1269.08 1189.06 1288.65C1189.06 1288.83 1189.06 1289 1189.05 1289.18H1110.53Z" fill="#B15626"/>
<path d="M1157.36 1253.88L1143.08 1249.94C1133.67 1233.22 1093.47 1235.28 1099.08 1255.64C1083.3 1257.76 1075.01 1250.68 1075.01 1250.68L1070.29 1289.18H1155.44L1157.36 1253.88Z" fill="#B15626"/>
<path d="M860.032 1025.16L940.559 1289.18H1003.34C983.466 1176.83 987.919 1103.79 969.225 1010.5C952.823 933.929 840.51 954.198 860.032 1025.16Z" fill="#0E0E0E"/>
<path d="M963.11 1289.18C963.11 1289 963.124 1288.83 963.124 1288.65C963.124 1269.08 945.538 1253.22 923.849 1253.22C902.159 1253.22 884.573 1269.08 884.573 1288.65C884.573 1288.83 884.587 1289 884.594 1289.18H963.11Z" fill="#B15626"/>
<path d="M916.277 1253.88L930.552 1249.94C939.978 1233.22 980.163 1235.28 974.567 1255.64C990.334 1257.76 998.631 1250.68 998.631 1250.68L1003.34 1289.18H918.199L916.277 1253.88Z" fill="#B15626"/>
<path d="M986.681 741.343C1016.13 757.471 1020.33 805.359 1005.23 824.437L921.202 880.923L1006.76 920.677L992.858 961.739C992.858 961.739 903.555 955.179 859.847 914.721C817.877 875.875 920.196 761.767 986.681 741.343Z" fill="#007880"/>
<path d="M1046.42 813.988C1021.24 785.442 1038.63 741.343 1070.74 742.64C1175.31 775.857 1207.59 868.085 1174.46 909.487C1146.07 944.958 1021.24 958.616 1021.24 958.616V919.782L1107.97 902.871C1107.97 902.871 1063.25 840.342 1046.42 813.988Z" fill="#007880"/>
<path d="M954.793 948.766C953.172 935.761 961.605 919.498 983.295 915.949C1021.18 909.74 1034.9 928.497 1038.48 941.903C1039.41 945.396 1035.89 949.093 1032.64 948.766C1029.38 948.445 1027.1 946.785 1026.54 944.125C1025.87 940.921 1023.99 936.959 1019.92 934.891C1023.84 941.816 1022.21 948.766 1011.54 948.766H954.793Z" fill="#F7A594"/>
<path d="M1040.33 948.735L1070.15 813.84H1076.47C1074.45 823.129 1045.12 958.104 1044.21 962.32C1036.39 962.32 964.608 962.32 954.854 962.32L945.094 948.735H1040.33Z" fill="#99C1FF"/>
<path d="M1076.47 813.84H1298.33L1265.51 962.32H1044.21L1076.47 813.84Z" fill="white"/>
<path d="M1011.78 751.009C1011.78 766.359 1062.78 776.542 1079.44 760.409C1081.97 757.983 1083.7 754.984 1084.37 751.305L1093.97 712.428L1033.07 691.708L1031.26 696.788L1011.78 751.009Z" fill="#F7A594"/>
<path d="M1084.37 751.305L1093.97 712.428L1036.35 698.43C1021.44 738.48 1074.66 770.481 1084.37 751.305Z" fill="#F4856D"/>
<path d="M1028.57 676.772C1025.36 714.983 1058.83 748.633 1086.91 750.342C1114.99 752.046 1153.65 723.747 1156.85 685.536C1160.06 647.325 1133.94 614.385 1098.51 611.966C1063.09 609.547 1031.78 638.561 1028.57 676.772Z" fill="#F7A594"/>
<path d="M1075.52 614.861C1114.34 592.672 1135.72 613.54 1155.05 635.673C1168.62 651.201 1178.23 662.36 1195.12 664.693C1162.63 701.664 1097.67 677.278 1077.21 640.234C1075.19 661.317 1047.65 678.784 1028.57 676.772C1022.39 653.306 1040.4 605.868 1075.52 614.861Z" fill="#0E0E0E"/>
<path d="M1019.08 677.278C1019.08 685.703 1026.65 692.529 1035.98 692.529C1045.31 692.529 1052.88 685.703 1052.88 677.278C1052.88 668.853 1045.31 662.027 1035.98 662.027C1026.65 662.027 1019.08 668.853 1019.08 677.278Z" fill="#F7A594"/>
</svg>
